P2
20 20
255
 141 142 142 142 143 143 143 142 142 142 141 140 139 138 138 137 135 135 134 133
 143 143 143 144 144 144 144 144 143 143 143 142 140 140 139 138 136 135 134 133
 144 144 145 146 146 165 150 159 144 144 144 143 142 141 140 139 137 136 135 134
 145 146 147 147 146 149 144 143 155 137 161 144 143 142 141 140 138 137 136 135
 146 147 148 149 165 155 140 150 137 164 163 146 144 143 142 140 139 138 136 135
 147 149 150 144 133 101 104  97 133 158 141 114 150 166 143 142 140 138 137 135
 148 149 151 115 106  89 108 108  88 146 118 112 147 130 143 142 140 139 138 136
 149 155 152 151 131 141 130 129 126 154 100 114 154 150 144 143 141 140 139 138
 149 158 161 164 156 101  76 121  89 103 148 139 150 147 144 143 142 142 140 140
 148 150 177 153 136 102  95 102 153 133  97 148  28  49 145 144 143 142  78  67
 148 149 176 172 157 134 112  74 115 149 148 147  53  43 145 144  76  51  29  46
 147 148 149 149 154 149 121 150 149 149 148 147 145  46 144 141  59  45  28  34
 146 147 147 148 148 148 149 148  61  52  57 146 146  69  57 102 143 142 140 139
 145 145 146 146 147 147 147 147 145 146  45  45  50 145  44  50  55 140 139 138
 143 144 144 145 145 145 145 146 146 146 144  47 142  46 143  53  54 137 138 136
 142 143 143 143 143 144 144 144 144 144  30 144 143  45 142 141  24  51 136 135
 141 142 142 142 142 142 142 143 143 143 141 142 142  30 140 139 138 137 135 134
 139 140 140 140 140 140 141 141 141 142 140 140 140 139 138 136 136 135 134 133
 138 138 138 139 139 139 139 139 140 140  41 139 138 138 136 135 134 133 132 131
 136 136 137 137 137 137 137 138 138 138  43 138 137 135 134 133 132 131 131 130
